<?xml version="1.0" encoding="utf-8"?>
<!-- Generator: Adobe Illustrator 25.0.1, SVG Export Plug-In . SVG Version: 6.00 Build 0)  -->
<svg version="1.1" id="Ebene_1" xmlns="http://www.w3.org/2000/svg" xmlns:xlink="http://www.w3.org/1999/xlink" x="0px" y="0px"
	 viewBox="0 0 500 500" style="enable-background:new 0 0 500 500;" xml:space="preserve">
<style type="text/css">
	.st0{fill:#FFE167;}
	.st1{fill:#EF5C6C;}
	.st2{fill:#FFFFFF;}
	.st3{fill:#542B42;}
	.st4{fill:#FFFDD7;stroke:#532C42;stroke-width:6;stroke-linecap:round;stroke-linejoin:round;}
	.st5{fill:#FFFDD7;}
</style>
<path class="st0" d="M250,0c138.1,0,250,111.9,250,250c0,138.1-111.9,250-250,250S0,388.1,0,250C0,111.9,111.9,0,250,0"/>
<g>
	<path id="Head" class="st1" d="M381.3,343.4c4.1-8.7,26.7-13.9,35.8-8.7c0-19.6-8-43.4-20.7-63.6c36.2-27.9,42.9-132.2,42.9-132.2
		s-105,7.5-120.1,51.2c-10.2-8.7-33.2-20.7-67.4-20.7c-29.8,0-50.9,7.9-67.4,20.7C161.5,159,64.3,139,64.3,139S60.2,253.1,108,276.8
		c-9.6,17.4-24.1,37.3-24.1,58c6.4-0.5,21,0.5,28.2,8.7c0,0,116.4,39.2,139.5,39.2S381.3,343.4,381.3,343.4z"/>
	<path id="Chin" class="st2" d="M152.5,318.6c-18.9,0-53.1,8.8-68.5,16.2c9.5,2.3,20.4,17.8,35,24.1c16.5,8.3,59.4,16,79.8,19.7
		c20.3,3.8,36.6,16.4,52,16.4c19.4,0,26.8-12.4,44.2-16.4c21.8-5,63.8-9.2,80.4-19.7c13.2-8.4,34.6-23.8,41.7-24.1
		c-14.7-11.3-49.7-20.7-77.2-20.7c-52.7,0-66,23.2-88.1,36.6C213,325.4,187.8,318.6,152.5,318.6z"/>
	<g id="Mouth">
		<path class="st3" d="M235.2,372.8c-10.5,0-15.6-7.6-16.8-11.7c-0.4-1.4,0.3-2.9,1.7-3.3c1.4-0.4,2.9,0.3,3.3,1.7
			c0.1,0.4,2.7,8,11.8,8c8.6,0,14.3-8.5,14.3-8.6c0.8-1.2,2.4-1.6,3.6-0.8c1.2,0.8,1.6,2.4,0.8,3.6
			C253.7,362.3,246.8,372.8,235.2,372.8z"/>
		<path class="st3" d="M268.3,372.8c-11.5,0-18.5-10.6-18.8-11c-0.8-1.2-0.4-2.9,0.8-3.6c1.2-0.8,2.9-0.4,3.6,0.8
			c0.1,0.1,5.7,8.6,14.3,8.6c9.1,0,11.7-7.6,11.8-8c0.4-1.4,1.9-2.2,3.3-1.7c1.4,0.4,2.2,1.9,1.7,3.3
			C283.9,365.2,278.8,372.8,268.3,372.8z"/>
	</g>
	<path id="Nose" class="st3" d="M251.6,360.2c-6.8-0.2-16.9-7-14.7-13.9c2.3-7,27.1-7,29.8,0C269.2,353,258.4,360.4,251.6,360.2z"/>
</g>
<circle id="Eye_x5F_Right" class="st3" cx="311.5" cy="291.8" r="18.1"/>
<path class="st3" d="M207.5,287c-1.1,0-2.2-0.7-2.5-1.8c-0.1-0.4-2.7-8-11.8-8c-8.7,0-14.3,8.5-14.3,8.6c-0.8,1.2-2.4,1.6-3.6,0.8
	c-1.2-0.8-1.6-2.4-0.8-3.6c0.3-0.4,7.2-11,18.7-11c10.5,0,15.6,7.6,16.8,11.7c0.4,1.4-0.3,2.9-1.7,3.3
	C208.1,286.9,207.8,287,207.5,287z"/>
<path class="st4" d="M218.2,424.4"/>
<path class="st4" d="M222.8,404.2"/>
<path class="st5" d="M382.8,342.7c-1,2.8-2.1,5.5-3.3,8.1C379.7,350.4,380.9,347.5,382.8,342.7z"/>
<path class="st3" d="M411.4,233.8c-0.2,8.9-1.4,17.8-3.7,26.4c-2.7,10.3-7.5,21-16.9,26c-8.4,4.5-18.6,3.5-28,1.8
	c-13.6-2.6-27.2-6.6-38.6-14.5c-11.4-7.8-20.5-19.9-22.3-33.6c-9.1,35-43,61.9-79.1,62.7c-16.7,0.4-30.9-5.4-46.8-8.6
	c-11.7-2.4-38.3,9-40.5,19.6c-2.1,10.4,0.7,21.1,7.7,29.1c-22.3-11.2-45.9-34.9-39.3-84.6c11.9-89.6,74.9-133.9,115.3-145.7
	s50.7,4,50.7,4s58-27.2,100,16C395.6,158.8,412.3,196.5,411.4,233.8z"/>
</svg>
